<svg width="44" height="42" viewBox="0 0 44 42" fill="none" xmlns="http://www.w3.org/2000/svg">
<path fill-rule="evenodd" clip-rule="evenodd" d="M8.525 0.925C8.65308 0.75423 8.81916 0.615626 9.01008 0.520163C9.20101 0.4247 9.41154 0.375 9.625 0.375H34.375C34.5885 0.375 34.799 0.4247 34.9899 0.520163C35.1808 0.615626 35.3469 0.75423 35.475 0.925L43.659 11.8535C44.0688 12.3622 44.088 13.091 43.6865 13.6245L23.1 41.075C22.9719 41.2458 22.8058 41.3844 22.6149 41.4798C22.424 41.5753 22.2135 41.625 22 41.625C21.7865 41.625 21.576 41.5753 21.3851 41.4798C21.1942 41.3844 21.0281 41.2458 20.9 41.075L0.275 13.575C0.0964946 13.337 0 13.0475 0 12.75C0 12.4525 0.0964946 12.163 0.275 11.925L8.525 0.925V0.925ZM39.8365 11.3338L34.87 4.70625L32.736 11.342L39.8365 11.3338V11.3338ZM29.8457 11.3447L32.4885 3.125H11.5115L14.1598 11.3612L29.8457 11.3447V11.3447ZM15.0425 14.1112L28.963 14.0975L22 35.7565L15.0425 14.1112ZM11.2722 11.364L9.12725 4.7035L4.12775 11.3723L11.2722 11.364ZM4.12225 14.125L12.1523 14.1168L18.183 32.8718L4.125 14.125H4.12225ZM25.817 32.8718L31.8505 14.0947L39.9052 14.0865L25.817 32.8718V32.8718Z" fill="#3A7CEB"/>
</svg>
