<svg width="273" height="36" viewBox="0 0 273 36" fill="none" xmlns="http://www.w3.org/2000/svg">
<path d="M9.7878 35.9491C7.07603 35.9491 4.76255 34.889 2.84736 32.7689C0.94912 30.6488 0 27.5449 0 23.4572C0 19.2848 1.01691 16.147 3.05074 14.0438C5.08457 11.9406 7.3811 10.889 9.94034 10.889C12.5504 10.889 14.6012 11.7795 16.0927 13.5604C16.7537 14.3237 17.2028 14.2304 17.4401 13.2806C17.9655 11.6862 19.1349 10.889 20.9484 10.889C23.3382 10.889 24.5331 12.2629 24.5331 15.0106V23.559C24.5331 24.9159 24.55 26.5018 24.5839 28.3166C24.6178 30.1145 24.6347 31.4799 24.6347 32.4127C24.6347 34.7703 23.3806 35.9491 20.8722 35.9491C18.8892 35.9491 17.7282 35.0671 17.3892 33.3032C17.1859 32.0481 15.9401 33.1505 15.9401 33.1505C15.9401 33.1505 12.5335 35.9491 9.7878 35.9491ZM12.4572 29.3852C13.8131 29.3852 14.9232 28.8509 15.7876 27.7823C16.652 26.6968 17.0842 25.289 17.0842 23.559C17.0842 21.7102 16.652 20.2431 15.7876 19.1576C14.9232 18.0551 13.8131 17.5039 12.4572 17.5039C11.1352 17.5039 10.0759 18.0466 9.27934 19.1322C8.48276 20.2007 8.08447 21.6424 8.08447 23.4572C8.08447 25.2551 8.48276 26.6968 9.27934 27.7823C10.0759 28.8509 11.1352 29.3852 12.4572 29.3852Z" fill="url(#paint0_linear_1_289)"/>
<path d="M33.7361 35.9491C30.7871 35.9491 29.3125 34.6007 29.3125 31.9039V23.4572V15.0106C29.3125 12.2629 30.6345 10.889 33.2785 10.889C35.4649 10.889 36.7445 11.8134 37.1174 13.6622C37.3885 14.8834 38.0495 14.9173 39.1003 13.764C41.0155 11.8473 43.2019 10.889 45.6594 10.889C48.3034 10.889 50.3627 11.7286 51.8372 13.4078C53.3117 15.07 54.049 17.5887 54.049 20.964V31.9039C54.049 34.6177 52.6084 35.9661 49.7271 35.9491C46.8119 35.9491 45.3544 34.6007 45.3544 31.9039V23.2028C45.3544 21.3201 45.0832 19.9463 44.5408 19.0813C43.9985 18.2163 43.1256 17.7837 41.9223 17.7837C39.3461 17.7837 38.058 19.7088 38.058 23.559V31.9039C38.058 34.6007 36.6174 35.9491 33.7361 35.9491Z" fill="url(#paint1_linear_1_289)"/>
<path d="M63.3283 35.9491C60.3793 35.9491 58.9048 34.6007 58.9048 31.9039V23.4572V15.0106C58.9048 12.2629 60.3793 10.889 63.3283 10.889C66.2096 10.889 67.6502 12.2629 67.6502 15.0106V23.4572V31.9039C67.6502 34.6007 66.2096 35.9491 63.3283 35.9491Z" fill="url(#paint2_linear_1_289)"/>
<path d="M76.955 35.9491C74.0059 35.9491 72.5314 34.6007 72.5314 31.9039V23.4572V15.0106C72.5314 12.2629 73.8534 10.889 76.4974 10.889C78.6837 10.889 79.9633 11.8134 80.3362 13.6622C80.6074 14.8834 81.2684 14.9173 82.3192 13.764C84.1157 11.8473 86.0987 10.889 88.2681 10.889C90.8443 10.889 92.8019 11.9152 94.1408 13.9675C94.4798 14.5272 94.9035 14.8071 95.412 14.8071C95.9204 14.8071 96.4204 14.5102 96.9119 13.9166C98.7085 11.8982 100.844 10.889 103.318 10.889C105.607 10.889 107.445 11.7456 108.835 13.4587C110.225 15.1548 110.92 17.6565 110.92 20.964V31.9039C110.92 34.6177 109.479 35.9661 106.598 35.9491C103.683 35.9491 102.225 34.6007 102.225 31.9039V23.2028C102.225 19.5901 101.251 17.7837 99.3017 17.7837C97.217 17.7837 96.1577 19.6579 96.1238 23.4064V31.9039C96.1238 34.6177 94.6832 35.9661 91.8019 35.9491C88.8868 35.9491 87.4292 34.6007 87.4292 31.9039V23.2028C87.4292 19.5901 86.4546 17.7837 84.5056 17.7837C82.3531 17.7837 81.2769 19.7088 81.2769 23.559V31.9039C81.2769 34.6007 79.8362 35.9491 76.955 35.9491Z" fill="url(#paint3_linear_1_289)"/>
<path d="M124.445 35.9491C121.733 35.9491 119.42 34.889 117.504 32.7689C115.606 30.6488 114.657 27.5449 114.657 23.4572C114.657 19.2848 115.674 16.147 117.708 14.0438C119.742 11.9406 122.038 10.889 124.597 10.889C127.207 10.889 129.258 11.7795 130.75 13.5604C131.411 14.3237 131.86 14.2304 132.097 13.2806C132.623 11.6862 133.792 10.889 135.605 10.889C137.995 10.889 139.19 12.2629 139.19 15.0106V23.559C139.19 24.9159 139.207 26.5018 139.241 28.3166C139.275 30.1145 139.292 31.4799 139.292 32.4127C139.292 34.7703 138.038 35.9491 135.529 35.9491C133.546 35.9491 132.385 35.0671 132.046 33.3032C131.843 32.0481 131.36 31.9972 130.597 33.1505C129.241 35.0163 127.191 35.9491 124.445 35.9491ZM127.114 29.3852C128.47 29.3852 129.58 28.8509 130.445 27.7823C131.309 26.6968 131.741 25.289 131.741 23.559C131.741 21.7102 131.309 20.2431 130.445 19.1576C129.58 18.0551 128.47 17.5039 127.114 17.5039C125.792 17.5039 124.733 18.0466 123.936 19.1322C123.14 20.2007 122.742 21.6424 122.742 23.4572C122.742 25.2551 123.14 26.6968 123.936 27.7823C124.733 28.8509 125.792 29.3852 127.114 29.3852Z" fill="url(#paint4_linear_1_289)"/>
<path d="M148.393 35.9491C145.444 35.9491 143.97 34.6007 143.97 31.9039V17.9873V4.07067C143.97 1.35689 145.444 0 148.393 0C151.274 0 152.715 1.35689 152.715 4.07067V17.9873V31.9039C152.715 34.6007 151.274 35.9491 148.393 35.9491Z" fill="url(#paint5_linear_1_289)"/>
<path d="M161.816 35.9491C158.867 35.9491 157.393 34.6007 157.393 31.9039V23.4572V15.0106C157.393 12.2629 158.715 10.889 161.359 10.889C163.545 10.889 164.825 11.8134 165.198 13.6622C165.469 14.8834 166.13 14.9173 167.181 13.764C168.977 11.8473 170.96 10.889 173.13 10.889C175.706 10.889 177.663 11.9152 179.002 13.9675C179.341 14.5272 179.765 14.8071 180.273 14.8071C180.782 14.8071 181.282 14.5102 181.773 13.9166C183.57 11.8982 185.705 10.889 188.18 10.889C190.468 10.889 192.307 11.7456 193.697 13.4587C195.087 15.1548 195.781 17.6565 195.781 20.964V31.9039C195.781 34.6177 194.341 35.9661 191.46 35.9491C188.544 35.9491 187.087 34.6007 187.087 31.9039V23.2028C187.087 19.5901 186.112 17.7837 184.163 17.7837C182.078 17.7837 181.019 19.6579 180.985 23.4064V31.9039C180.985 34.6177 179.545 35.9661 176.663 35.9491C173.748 35.9491 172.291 34.6007 172.291 31.9039V23.2028C172.291 19.5901 171.316 17.7837 169.367 17.7837C167.215 17.7837 166.138 19.7088 166.138 23.559V31.9039C166.138 34.6007 164.698 35.9491 161.816 35.9491Z" fill="url(#paint6_linear_1_289)"/>
<path d="M221.281 32.4636C218.891 34.8212 215.857 36 212.179 36C208.501 36 205.467 34.8212 203.078 32.4636C200.705 30.106 199.519 27.1039 199.519 23.4572C199.519 19.8106 200.705 16.8085 203.078 14.4509C205.467 12.0763 208.501 10.889 212.179 10.889C215.857 10.889 218.891 12.0763 221.281 14.4509C223.687 16.8085 224.891 19.8106 224.891 23.4572C224.891 27.1039 223.687 30.106 221.281 32.4636ZM212.179 29.4869C213.705 29.4869 214.899 28.9272 215.764 27.8078C216.628 26.6714 217.06 25.2212 217.06 23.4572C217.06 21.6763 216.628 20.2261 215.764 19.1067C214.899 17.9703 213.705 17.4021 212.179 17.4021C210.688 17.4021 209.493 17.9703 208.595 19.1067C207.713 20.2261 207.273 21.6763 207.273 23.4572C207.273 25.2212 207.713 26.6714 208.595 27.8078C209.493 28.9272 210.688 29.4869 212.179 29.4869Z" fill="url(#paint7_linear_1_289)"/>
<path d="M233 35.9491C230.051 35.9491 228.577 34.6007 228.577 31.9039V23.4572V15.0106C228.577 12.2629 229.882 10.889 232.492 10.889C234.678 10.889 235.958 11.7456 236.331 13.4587C236.602 14.5272 237.195 14.5951 238.11 13.6622C239.805 11.9661 241.661 11.1095 243.678 11.0926C245.102 11.0926 246.186 11.5505 246.932 12.4664C247.678 13.3654 248.051 14.4594 248.051 15.7484C248.051 17.1053 247.695 18.2587 246.983 19.2085C246.271 20.1583 245.203 20.6332 243.78 20.6332C242.78 20.6332 241.882 20.294 241.085 19.6155C240.288 18.9371 239.678 18.5979 239.254 18.5979C237.966 18.5979 237.322 20.1498 237.322 23.2537V31.9039C237.322 34.6007 235.882 35.9491 233 35.9491Z" fill="url(#paint8_linear_1_289)"/>
<path d="M270.652 33.2523C268.33 35.0841 265.33 36 261.652 36C257.974 36 254.923 34.8212 252.5 32.4636C250.093 30.106 248.89 27.1208 248.89 23.5081C248.89 19.8615 250.127 16.8509 252.601 14.4763C255.093 12.0848 258.211 10.889 261.957 10.889C265.076 10.889 267.694 11.788 269.813 13.5859C271.931 15.3668 272.991 17.665 272.991 20.4806C272.991 22.0071 272.575 23.1095 271.745 23.788C270.914 24.4664 269.508 24.8057 267.525 24.8057H258.728C257.61 24.8057 257.059 25.306 257.076 26.3067C257.144 27.1378 257.576 27.8671 258.372 28.4947C259.169 29.1223 260.177 29.436 261.398 29.436C263.415 29.436 265.271 28.9187 266.965 27.8841C268.253 27.1548 269.279 26.7901 270.042 26.7901C270.804 26.7901 271.448 27.0784 271.974 27.6551C272.516 28.2148 272.787 28.9526 272.787 29.8685C272.787 31.1237 272.075 32.2516 270.652 33.2523ZM260.508 21.371H263.152C264.186 21.371 264.872 21.2862 265.211 21.1166C265.55 20.93 265.72 20.5823 265.72 20.0735C265.72 19.2763 265.406 18.6318 264.779 18.1399C264.152 17.6481 263.279 17.4021 262.16 17.4021C260.771 17.3682 259.618 17.6565 258.703 18.2671C257.788 18.8777 257.33 19.5307 257.33 20.2261C257.33 20.6502 257.55 20.947 257.991 21.1166C258.449 21.2862 259.288 21.371 260.508 21.371Z" fill="url(#paint9_linear_1_289)"/>
<defs>
<linearGradient id="paint0_linear_1_289" x1="13" y1="36" x2="321.5" y2="-2.5" gradientUnits="userSpaceOnUse">
<stop stop-color="#D65AC9"/>
<stop offset="1" stop-color="#F5D424"/>
</linearGradient>
<linearGradient id="paint1_linear_1_289" x1="13" y1="36" x2="321.5" y2="-2.5" gradientUnits="userSpaceOnUse">
<stop stop-color="#D65AC9"/>
<stop offset="1" stop-color="#F5D424"/>
</linearGradient>
<linearGradient id="paint2_linear_1_289" x1="13" y1="36" x2="321.5" y2="-2.5" gradientUnits="userSpaceOnUse">
<stop stop-color="#D65AC9"/>
<stop offset="1" stop-color="#F5D424"/>
</linearGradient>
<linearGradient id="paint3_linear_1_289" x1="13" y1="36" x2="321.5" y2="-2.5" gradientUnits="userSpaceOnUse">
<stop stop-color="#D65AC9"/>
<stop offset="1" stop-color="#F5D424"/>
</linearGradient>
<linearGradient id="paint4_linear_1_289" x1="13" y1="36" x2="321.5" y2="-2.5" gradientUnits="userSpaceOnUse">
<stop stop-color="#D65AC9"/>
<stop offset="1" stop-color="#F5D424"/>
</linearGradient>
<linearGradient id="paint5_linear_1_289" x1="13" y1="36" x2="321.5" y2="-2.5" gradientUnits="userSpaceOnUse">
<stop stop-color="#D65AC9"/>
<stop offset="1" stop-color="#F5D424"/>
</linearGradient>
<linearGradient id="paint6_linear_1_289" x1="13" y1="36" x2="321.5" y2="-2.5" gradientUnits="userSpaceOnUse">
<stop stop-color="#D65AC9"/>
<stop offset="1" stop-color="#F5D424"/>
</linearGradient>
<linearGradient id="paint7_linear_1_289" x1="13" y1="36" x2="321.5" y2="-2.5" gradientUnits="userSpaceOnUse">
<stop stop-color="#D65AC9"/>
<stop offset="1" stop-color="#F5D424"/>
</linearGradient>
<linearGradient id="paint8_linear_1_289" x1="13" y1="36" x2="321.5" y2="-2.5" gradientUnits="userSpaceOnUse">
<stop stop-color="#D65AC9"/>
<stop offset="1" stop-color="#F5D424"/>
</linearGradient>
<linearGradient id="paint9_linear_1_289" x1="13" y1="36" x2="321.5" y2="-2.5" gradientUnits="userSpaceOnUse">
<stop stop-color="#D65AC9"/>
<stop offset="1" stop-color="#F5D424"/>
</linearGradient>
</defs>
</svg>
